<svg viewBox="0 0 256 256" xmlns="http://www.w3.org/2000/svg">

  <defs>
    <linearGradient id="gradAB" gradientUnits="userSpaceOnUse"
      x1="0" y1="0" x2="256" y2="256">
      <stop offset="0%" stop-color="#ff00cc"/>
      <stop offset="100%" stop-color="#4facfe"/>
    </linearGradient>
  </defs>

  <!-- Background -->
  <rect width="256" height="256" fill="#000000"/>

  <!-- Logo paths -->
  <path fill="url(#gradAB)" d="

M119.953613,65.618530 
	C121.621826,70.458389 125.040482,71.831253 130.032822,71.715744 
	C142.847092,71.419250 155.674637,71.489685 168.493027,71.677101 
	C173.816513,71.754929 179.133820,72.621719 183.398224,76.286102 
	C191.446823,83.202225 193.206161,101.128540 178.592651,108.133141 
	C163.476898,115.378487 148.117920,122.116455 132.864273,129.074020 
	C118.215294,135.755798 103.614555,142.546387 88.898018,149.075943 
	C78.782921,153.563873 78.529411,153.895081 83.491928,163.932648 
	C84.228889,165.423294 85.006187,166.894897 85.708534,168.401535 
	C86.935829,171.034241 88.819725,171.764725 91.362503,170.314041 
	C100.481651,165.111496 110.397392,161.631226 119.832283,157.105103 
	C133.597595,150.501572 147.651581,144.484863 161.287354,137.630783 
	C173.423904,131.530319 186.427460,127.097717 197.457123,118.805939 
	C209.294098,109.907242 214.870575,95.376518 211.439529,81.462585 
	C207.514023,65.543358 195.139755,53.318920 180.328278,51.522526 
	C159.780411,49.030396 139.115341,50.935738 118.508018,50.473385 
	C114.978294,50.394192 114.146431,52.327637 115.431076,55.377537 
	C116.784309,58.590225 118.205009,61.774502 119.953613,65.618530 
M129.686615,109.678429 
	C121.559418,92.390991 113.453339,75.093567 105.285530,57.825348 
	C103.818268,54.723274 102.722733,51.417061 98.091042,51.302723 
	C93.537758,51.190319 92.067245,54.186348 90.485039,57.314022 
	C83.120010,71.873116 75.857735,86.484375 68.454918,101.024124 
	C58.568726,120.441406 49.363529,140.201889 38.916393,159.338135 
	C35.739582,165.157135 33.006477,171.218384 30.070156,177.168686 
	C39.729782,173.447678 48.515388,169.125534 57.303795,164.809082 
	C58.856506,164.046463 59.953854,162.874741 60.760101,161.341812 
	C62.919327,157.236343 65.374001,153.266632 67.243721,149.036316 
	C68.276215,146.700272 69.512306,145.651855 72.012619,145.550629 
	C73.452576,145.492325 74.946365,144.964844 76.280037,144.352554 
	C93.193588,136.587463 110.097191,128.800247 126.969833,120.946686 
	C133.150803,118.069687 133.110504,117.983093 129.686615,109.678429 
M192.195404,174.769592 
	C191.495010,175.217514 190.786346,175.653061 190.095474,176.115234 
	C182.513596,181.187302 173.824463,181.407547 165.547134,179.933823 
	C160.323624,179.003830 160.369171,172.009949 157.610077,168.020523 
	C157.516296,167.884903 157.457581,167.725372 157.378922,167.578903 
	C149.700256,153.280182 153.172119,152.804565 136.346176,160.703583 
	C132.415649,162.548782 132.215866,164.616486 134.038422,168.117996 
	C138.573441,176.830704 142.980667,185.616211 147.162109,194.502869 
	C148.418701,197.173462 150.237579,197.646179 152.721268,197.632385 
	C159.053421,197.597244 165.386185,197.662354 171.718185,197.615997 
	C179.664871,197.557816 187.502380,197.924866 195.317978,194.989563 
	C209.161377,189.790405 217.168442,180.102356 219.431915,165.834274 
	C221.687683,151.614746 215.733322,140.584747 204.646469,131.985199 
	C203.552826,131.136917 202.309631,130.253174 201.003998,130.864563 
	C194.650696,133.839645 188.366379,136.962036 181.492416,140.307358 
	C187.464279,145.591400 195.266006,146.852173 197.337234,154.858414 
	C199.280029,162.368195 197.571762,168.572327 192.195404,174.769592 
M128.166779,197.633408 
	C130.053940,197.376617 132.186630,198.295135 134.003357,196.274246 
	C132.999023,192.020004 130.636490,188.196533 128.970947,184.103455 
	C127.816109,181.265381 125.751053,180.283020 122.691086,180.343628 
	C114.550873,180.504822 106.405373,180.385773 98.262192,180.423599 
	C96.826912,180.430252 95.202248,180.036255 94.091080,181.841385 
	C95.034653,186.136887 97.734978,189.812378 99.495056,193.893372 
	C100.705292,196.699493 102.772270,197.722244 105.810928,197.663620 
	C112.954376,197.525787 120.102440,197.627777 128.166779,197.633408 
z"/>
<path fill="black" d="
M98.558151,95.035225 
	C102.550400,103.561447 106.388306,111.788971 110.474960,120.549751 
	C100.605881,123.164795 90.157104,118.106644 82.259521,125.461540 
	C80.290314,123.520691 81.354050,122.306091 81.887718,121.217857 
	C86.056900,112.716377 90.262062,104.231888 94.550934,95.790337 
	C95.328148,94.260590 96.091812,91.271965 98.558151,95.035225 
z"/>
</svg>